<?xml version="1.0" encoding="UTF-8" standalone="no"?>
<!-- Created with Inkscape (http://www.inkscape.org/) -->

<svg
   xmlns:dc="http://purl.org/dc/elements/1.1/"
   xmlns:cc="http://creativecommons.org/ns#"
   xmlns:rdf="http://www.w3.org/1999/02/22-rdf-syntax-ns#"
   xmlns:svg="http://www.w3.org/2000/svg"
   xmlns="http://www.w3.org/2000/svg"
   xmlns:sodipodi="http://sodipodi.sourceforge.net/DTD/sodipodi-0.dtd"
   xmlns:inkscape="http://www.inkscape.org/namespaces/inkscape"
   id="svg2985"
   version="1.1"
   inkscape:version="0.48.4 r9939"
   width="512"
   height="512"
   sodipodi:docname="favicon.svg"
   inkscape:export-filename="/home/surge/www/water-polo-qld/wp-content/themes/Water-Polo-QLD-theme/favicon.png"
   inkscape:export-xdpi="4.3945312"
   inkscape:export-ydpi="4.3945312">
  <metadata
     id="metadata2991">
    <rdf:RDF>
      <cc:Work
         rdf:about="">
        <dc:format>image/svg+xml</dc:format>
        <dc:type
           rdf:resource="http://purl.org/dc/dcmitype/StillImage" />
        <dc:title></dc:title>
      </cc:Work>
    </rdf:RDF>
  </metadata>
  <defs
     id="defs2989" />
  <sodipodi:namedview
     pagecolor="#ffffff"
     bordercolor="#666666"
     borderopacity="1"
     objecttolerance="10"
     gridtolerance="10"
     guidetolerance="10"
     inkscape:pageopacity="0"
     inkscape:pageshadow="2"
     inkscape:window-width="1445"
     inkscape:window-height="1024"
     id="namedview2987"
     showgrid="false"
     inkscape:zoom="1.4182101"
     inkscape:cx="256"
     inkscape:cy="256"
     inkscape:window-x="178"
     inkscape:window-y="26"
     inkscape:window-maximized="0"
     inkscape:current-layer="svg2985" />
  <path
     sodipodi:type="arc"
     style="fill:#8b0e04;fill-opacity:1;stroke:none"
     id="path3022"
     sodipodi:cx="191.31355"
     sodipodi:cy="193.09322"
     sodipodi:rx="152.16101"
     sodipodi:ry="152.16101"
     d="m 343.47456,193.09322 a 152.16101,152.16101 0 1 1 -304.322018,0 152.16101,152.16101 0 1 1 304.322018,0 z"
     transform="matrix(1.541314,0,0,1.55985,-38.901836,-41.966449)" />
  <path
     d="m 256.13971,47.989597 c -117.31954,0 -212.765618,95.448903 -212.765618,212.771283 0,117.31954 95.446078,212.76561 212.765618,212.76561 117.32521,0 212.77695,-95.44607 212.77695,-212.76561 C 468.91524,143.43709 373.46492,47.989597 256.13971,47.989597 z m -3.79878,397.116983 c -23.74733,-0.48229 -46.40524,-5.47404 -67.15241,-14.15676 50.79695,-38.20765 82.36312,-97.71569 84.95049,-161.67077 21.19684,-11.05021 44.0959,-17.7229 67.35526,-19.9755 16.1143,76.49474 -17.791,155.23072 -85.15334,195.80303 z m 4.18461,-200.72527 c -20.15707,-12.82477 -37.3764,-29.30931 -50.95299,-48.31172 58.19024,-52.20553 143.29677,-62.20179 212.11593,-24.14734 10.93674,19.80811 18.34279,41.82344 21.3472,65.20195 -58.49238,-24.89916 -125.8221,-22.48343 -182.51014,7.25711 z M 383.78886,127.80933 c -66.78502,-17.95412 -139.27529,-2.34339 -193.10502,43.54835 -11.46017,-22.84232 -18.22931,-48.10462 -19.44214,-74.253487 25.42543,-13.243238 54.30068,-20.744335 84.89659,-20.744335 49.49617,0 94.49424,19.605269 127.65057,51.449472 z m -239.5443,-13.50992 c 7.71104,63.06142 43.45615,120.11827 97.52561,154.32145 -1.02842,23.88351 -6.69964,47.04924 -16.37815,68.31843 C 151.10449,312.65293 99.877727,243.94867 98.398217,165.34886 110.38465,145.60599 125.97695,128.28879 144.24456,114.29941 z M 71.744353,260.76088 c 0,-15.25752 1.875274,-30.08382 5.386094,-44.27321 17.79666,66.90701 67.594993,121.96801 134.320423,145.66569 -14.04753,21.34011 -32.5336,39.82759 -54.56452,53.9503 C 105.72058,383.29771 71.744353,325.9217 71.744353,260.76088 z M 307.31398,437.92465 c 49.04225,-48.86636 71.82641,-119.52107 58.98603,-189.15446 25.52047,1.49653 50.78986,8.26851 74.0478,20.30176 -3.57749,80.27223 -58.72077,147.35655 -133.03383,168.8527 z"
     id="path9"
     inkscape:connector-curvature="0"
     style="fill:#ffffff"
     inkscape:export-filename="/home/surge/www/water-polo-qld/wp-content/themes/Water-Polo-QLD-theme/favicon.png"
     inkscape:export-xdpi="4.3945312"
     inkscape:export-ydpi="4.3945312" />
</svg>
